<svg xmlns="http://www.w3.org/2000/svg" viewBox="0 0 345.55 110.23"><defs><style>.cls-1{fill:#2f3b80;}.cls-2{fill:#fff;}</style></defs><g id="Capa_2" data-name="Capa 2"><g id="TEXTS"><path class="cls-1" d="M0,0H345.55a0,0,0,0,1,0,0V100a10.25,10.25,0,0,1-10.25,10.25h-325A10.25,10.25,0,0,1,0,100V0A0,0,0,0,1,0,0Z"/><path class="cls-2" d="M42.69,26.69H31.89v-2.3l10.8-10.91Zm0,63.44H31.89V37.7h10.8Z"/><path class="cls-2" d="M101.83,90.13H90.92V63.91a15.16,15.16,0,0,0-1.2-6,15,15,0,0,0-3.31-4.88,16.29,16.29,0,0,0-4.87-3.25,15.23,15.23,0,0,0-11.85,0,16.33,16.33,0,0,0-4.88,3.25,15,15,0,0,0-3.3,4.88,15.16,15.16,0,0,0-1.2,6V90.13H49.4V63.91A24.21,24.21,0,0,1,51.34,53.8,26.29,26.29,0,0,1,57,45.46a27,27,0,0,1,8.39-5.66,26.19,26.19,0,0,1,20.55,0,27.15,27.15,0,0,1,8.39,5.66,26.62,26.62,0,0,1,5.61,8.34,24.37,24.37,0,0,1,1.94,10.11Z"/><path class="cls-2" d="M160.64,90.13h-10.9V63.91a15,15,0,0,0-1.21-6,14.82,14.82,0,0,0-3.3-4.88,16.21,16.21,0,0,0-4.88-3.25,15.2,15.2,0,0,0-11.84,0,16.21,16.21,0,0,0-4.88,3.25,14.82,14.82,0,0,0-3.3,4.88,15,15,0,0,0-1.21,6V90.13h-10.9V63.91a24.21,24.21,0,0,1,1.94-10.11,26.29,26.29,0,0,1,5.61-8.34,26.92,26.92,0,0,1,8.39-5.66,26.19,26.19,0,0,1,20.55,0,27,27,0,0,1,8.38,5.66,26.29,26.29,0,0,1,5.61,8.34,24.05,24.05,0,0,1,1.94,10.11Z"/><path class="cls-2" d="M192.41,37.7a25.32,25.32,0,0,1,10.12,2,26.13,26.13,0,0,1,8.33,5.61,26.77,26.77,0,0,1,5.66,8.33,25.94,25.94,0,0,1,0,20.45,26.21,26.21,0,0,1-5.66,8.28A26.84,26.84,0,0,1,202.53,88a26.37,26.37,0,0,1-20.34,0,26.43,26.43,0,0,1-8.29-5.56,26.08,26.08,0,0,1-5.55-8.28,26.53,26.53,0,0,1,0-20.45,26.64,26.64,0,0,1,5.55-8.33,25.91,25.91,0,0,1,18.51-7.66Zm0,41.42a15,15,0,0,0,6-1.21,15.09,15.09,0,0,0,8.12-8.07,14.8,14.8,0,0,0,1.21-5.93,15.17,15.17,0,0,0-1.21-6,14.94,14.94,0,0,0-8.12-8.13,15.5,15.5,0,0,0-12,0,16,16,0,0,0-4.92,3.25,15,15,0,0,0-3.31,4.88,15.16,15.16,0,0,0-1.2,6,14.79,14.79,0,0,0,1.2,5.93,15.06,15.06,0,0,0,3.31,4.82,15.85,15.85,0,0,0,4.92,3.25A15,15,0,0,0,192.41,79.12Z"/><path class="cls-2" d="M264.75,37.49l8,8L249.24,90.13h-8.08L217.89,45.46l8-8,19.29,37.33Z"/><path class="cls-2" d="M298.3,90.13A25.09,25.09,0,0,1,288.08,88a27.12,27.12,0,0,1-8.33-5.66A26.29,26.29,0,0,1,274.14,74a25.29,25.29,0,0,1-2.05-10.12,25.56,25.56,0,0,1,2.05-10.22,26.22,26.22,0,0,1,13.94-13.94,26.53,26.53,0,0,1,20.45,0,26.22,26.22,0,0,1,13.94,13.94,25.73,25.73,0,0,1,2,10.22V90.13H313.61V63.91a15.36,15.36,0,0,0-4.51-11,15.74,15.74,0,0,0-4.87-3.31,15.23,15.23,0,0,0-11.85,0,15.58,15.58,0,0,0-8.18,8.23,15.45,15.45,0,0,0-1.2,6.08,14.79,14.79,0,0,0,1.2,5.93A15.72,15.72,0,0,0,292.38,78a14.78,14.78,0,0,0,5.92,1.2,16.63,16.63,0,0,0,1.94-.1,18.22,18.22,0,0,0,1.84-.32l2.52,10.59A52,52,0,0,1,298.3,90.13Z"/></g></g></svg>